<mxfile host="app.diagrams.net" agent="Mozilla/5.0 (X11; Linux x86_64; rv:132.0) Gecko/20100101 Firefox/132.0" version="24.8.3">
  <diagram name="Page-1" id="QJx_7SdigHdTlW4cc8k-">
    <mxGraphModel dx="2067" dy="708" grid="1" gridSize="10" guides="1" tooltips="1" connect="1" arrows="1" fold="1" page="1" pageScale="1" pageWidth="850" pageHeight="1100" math="0" shadow="0">
      <root>
        <mxCell id="0" />
        <mxCell id="1" parent="0" />
        <mxCell id="vpzJRDSpykFV6LiFvYoL-5" value="" style="ellipse;whiteSpace=wrap;html=1;fillColor=#fff2cc;strokeColor=#d6b656;" vertex="1" parent="1">
          <mxGeometry x="-120" y="460" width="120" height="80" as="geometry" />
        </mxCell>
        <mxCell id="vpzJRDSpykFV6LiFvYoL-2" value="&lt;div style=&quot;font-size: 20px;&quot;&gt;&lt;b&gt;&lt;font style=&quot;font-size: 20px;&quot;&gt;&amp;nbsp;&amp;nbsp;&amp;nbsp;&amp;nbsp;&lt;/font&gt;&lt;/b&gt;&lt;/div&gt;&lt;div style=&quot;font-size: 20px;&quot;&gt;&lt;b&gt;&lt;font style=&quot;font-size: 20px;&quot;&gt;&amp;nbsp;&amp;nbsp;&amp;nbsp;&amp;nbsp;&amp;nbsp; Code&lt;/font&gt;&lt;/b&gt;&lt;/div&gt;" style="rounded=1;whiteSpace=wrap;html=1;align=left;verticalAlign=top;fillColor=#e1d5e7;strokeColor=#9673a6;" vertex="1" parent="1">
          <mxGeometry x="30" y="315" width="570" height="360" as="geometry" />
        </mxCell>
        <mxCell id="vpzJRDSpykFV6LiFvYoL-3" value="&lt;div style=&quot;font-size: 18px;&quot; align=&quot;right&quot;&gt;&lt;font style=&quot;font-size: 18px;&quot;&gt;&amp;nbsp;&amp;nbsp;&amp;nbsp;&amp;nbsp;&lt;/font&gt;&lt;/div&gt;&lt;div style=&quot;font-size: 18px;&quot; align=&quot;right&quot;&gt;&lt;b&gt;&lt;font style=&quot;font-size: 18px;&quot;&gt;&amp;nbsp;&amp;nbsp;&amp;nbsp;&amp;nbsp;&amp;nbsp; Understand &amp;nbsp;&amp;nbsp;&amp;nbsp;&amp;nbsp;&amp;nbsp;&amp;nbsp; &lt;br&gt;&lt;/font&gt;&lt;/b&gt;&lt;/div&gt;&lt;div style=&quot;font-size: 18px;&quot; align=&quot;right&quot;&gt;&lt;font style=&quot;font-size: 18px;&quot;&gt;&amp;nbsp; &lt;br&gt;&lt;/font&gt;&lt;/div&gt;" style="rounded=1;whiteSpace=wrap;html=1;align=right;verticalAlign=bottom;fillColor=#f5f5f5;fontColor=#333333;strokeColor=#666666;" vertex="1" parent="1">
          <mxGeometry x="220" y="350" width="345" height="290" as="geometry" />
        </mxCell>
        <mxCell id="vpzJRDSpykFV6LiFvYoL-7" value="" style="edgeStyle=orthogonalEdgeStyle;rounded=0;orthogonalLoop=1;jettySize=auto;html=1;" edge="1" parent="1" source="vpzJRDSpykFV6LiFvYoL-4" target="vpzJRDSpykFV6LiFvYoL-6">
          <mxGeometry relative="1" as="geometry" />
        </mxCell>
        <mxCell id="vpzJRDSpykFV6LiFvYoL-4" value="Acquire" style="ellipse;whiteSpace=wrap;html=1;fillColor=#fff2cc;strokeColor=#d6b656;fontStyle=1" vertex="1" parent="1">
          <mxGeometry x="70" y="390" width="120" height="80" as="geometry" />
        </mxCell>
        <mxCell id="vpzJRDSpykFV6LiFvYoL-1" value="" style="html=1;verticalLabelPosition=bottom;align=center;labelBackgroundColor=#ffffff;verticalAlign=top;strokeWidth=2;strokeColor=#1A1A1A;shadow=0;dashed=0;shape=mxgraph.ios7.icons.lightbulb;fillColor=none;" vertex="1" parent="1">
          <mxGeometry x="-71.4" y="485.15" width="22.8" height="29.7" as="geometry" />
        </mxCell>
        <mxCell id="vpzJRDSpykFV6LiFvYoL-16" style="edgeStyle=orthogonalEdgeStyle;rounded=0;orthogonalLoop=1;jettySize=auto;html=1;exitX=0.5;exitY=0;exitDx=0;exitDy=0;entryX=0;entryY=0.5;entryDx=0;entryDy=0;curved=1;" edge="1" parent="1" source="vpzJRDSpykFV6LiFvYoL-5" target="vpzJRDSpykFV6LiFvYoL-4">
          <mxGeometry relative="1" as="geometry" />
        </mxCell>
        <mxCell id="vpzJRDSpykFV6LiFvYoL-9" value="" style="rounded=0;orthogonalLoop=1;jettySize=auto;html=1;edgeStyle=orthogonalEdgeStyle;entryX=0.5;entryY=0;entryDx=0;entryDy=0;curved=1;" edge="1" parent="1" source="vpzJRDSpykFV6LiFvYoL-6" target="vpzJRDSpykFV6LiFvYoL-8">
          <mxGeometry relative="1" as="geometry" />
        </mxCell>
        <mxCell id="vpzJRDSpykFV6LiFvYoL-6" value="Explore" style="ellipse;whiteSpace=wrap;html=1;fillColor=#fff2cc;strokeColor=#d6b656;fontStyle=1" vertex="1" parent="1">
          <mxGeometry x="270" y="390" width="120" height="80" as="geometry" />
        </mxCell>
        <mxCell id="vpzJRDSpykFV6LiFvYoL-11" value="" style="edgeStyle=orthogonalEdgeStyle;rounded=0;orthogonalLoop=1;jettySize=auto;html=1;exitX=0.5;exitY=1;exitDx=0;exitDy=0;entryX=1;entryY=0.5;entryDx=0;entryDy=0;curved=1;" edge="1" parent="1" source="vpzJRDSpykFV6LiFvYoL-8" target="vpzJRDSpykFV6LiFvYoL-10">
          <mxGeometry relative="1" as="geometry" />
        </mxCell>
        <mxCell id="vpzJRDSpykFV6LiFvYoL-8" value="Transform" style="ellipse;whiteSpace=wrap;html=1;fillColor=#fff2cc;strokeColor=#d6b656;fontStyle=1" vertex="1" parent="1">
          <mxGeometry x="410" y="460" width="120" height="80" as="geometry" />
        </mxCell>
        <mxCell id="vpzJRDSpykFV6LiFvYoL-12" style="edgeStyle=orthogonalEdgeStyle;rounded=0;orthogonalLoop=1;jettySize=auto;html=1;entryX=0.5;entryY=1;entryDx=0;entryDy=0;dashed=1;" edge="1" parent="1" source="vpzJRDSpykFV6LiFvYoL-10" target="vpzJRDSpykFV6LiFvYoL-6">
          <mxGeometry relative="1" as="geometry" />
        </mxCell>
        <mxCell id="vpzJRDSpykFV6LiFvYoL-14" value="" style="edgeStyle=orthogonalEdgeStyle;rounded=0;orthogonalLoop=1;jettySize=auto;html=1;" edge="1" parent="1" source="vpzJRDSpykFV6LiFvYoL-10" target="vpzJRDSpykFV6LiFvYoL-13">
          <mxGeometry relative="1" as="geometry" />
        </mxCell>
        <mxCell id="vpzJRDSpykFV6LiFvYoL-10" value="Model" style="ellipse;whiteSpace=wrap;html=1;fillColor=#fff2cc;strokeColor=#d6b656;fontStyle=1" vertex="1" parent="1">
          <mxGeometry x="270" y="520" width="120" height="80" as="geometry" />
        </mxCell>
        <mxCell id="vpzJRDSpykFV6LiFvYoL-15" style="edgeStyle=orthogonalEdgeStyle;rounded=0;orthogonalLoop=1;jettySize=auto;html=1;exitX=0;exitY=0.5;exitDx=0;exitDy=0;entryX=0.5;entryY=1;entryDx=0;entryDy=0;curved=1;" edge="1" parent="1" source="vpzJRDSpykFV6LiFvYoL-13" target="vpzJRDSpykFV6LiFvYoL-5">
          <mxGeometry relative="1" as="geometry" />
        </mxCell>
        <mxCell id="vpzJRDSpykFV6LiFvYoL-13" value="Commuinicate" style="ellipse;whiteSpace=wrap;html=1;fillColor=#fff2cc;strokeColor=#d6b656;fontStyle=1" vertex="1" parent="1">
          <mxGeometry x="70" y="520" width="120" height="80" as="geometry" />
        </mxCell>
      </root>
    </mxGraphModel>
  </diagram>
</mxfile>
